<svg xmlns="http://www.w3.org/2000/svg" xmlns:xlink="http://www.w3.org/1999/xlink" width="1264" zoomAndPan="magnify" viewBox="0 0 948 551.249983" height="735" preserveAspectRatio="xMidYMid meet" version="1.0"><path fill="#ffffff" d="M 189.613281 114.589844 L 189.613281 237.617188 C 282.527344 253.976562 270.738281 163.679688 270.738281 163.679688 C 265.78125 120.003906 229.253906 113.203125 206.941406 113.203125 C 196.804688 113.203125 189.613281 114.589844 189.613281 114.589844 " fill-opacity="1" fill-rule="nonzero"/><path fill="#ffffff" d="M 168.671875 58.992188 L 135.300781 93.664062 L 264.859375 94.96875 C 328.96875 98.886719 332.902344 160.40625 332.902344 160.40625 C 339.4375 224.527344 275.316406 245.46875 275.316406 245.46875 C 327.007812 336.40625 366.929688 359.964844 366.929688 359.964844 C 334.863281 319.402344 320.472656 252.003906 320.472656 252.003906 C 379.359375 217.332031 362.355469 139.480469 362.355469 139.480469 C 353.84375 66.832031 259.613281 57.679688 259.613281 57.679688 Z M 168.671875 58.992188 " fill-opacity="1" fill-rule="nonzero"/><path fill="#ffffff" d="M 102.589844 124.417969 L 29.957031 198.996094 C -19.117188 236.621094 14.25 270.96875 14.25 270.96875 L 101.273438 359.324219 C 130.726562 390.734375 127.449219 345.574219 127.449219 345.574219 L 127.449219 130.96875 C 127.183594 120.058594 123.238281 116.785156 118.542969 116.785156 C 111.40625 116.785156 102.589844 124.417969 102.589844 124.417969 " fill-opacity="1" fill-rule="nonzero"/><path fill="#ffffff" d="M 186.335938 262.472656 L 186.335938 342.960938 C 186.335938 371.753906 205.316406 370.4375 205.316406 370.4375 L 230.191406 370.4375 L 233.65625 370.507812 L 233.65625 390.734375 L 135.960938 390.734375 L 207.277344 464.667969 C 243.90625 489.523438 266.164062 465.984375 266.164062 465.984375 L 339.4375 387.457031 C 303.464844 389.417969 289.722656 370.4375 289.722656 370.4375 L 221.007812 262.472656 Z M 186.335938 262.472656 " fill-opacity="1" fill-rule="nonzero"/><path fill="#ffffff" d="M 592.242188 169.503906 C 583.714844 170.507812 577.542969 175.746094 578.480469 181.214844 C 579.402344 186.699219 587.066406 190.308594 595.605469 189.316406 C 604.117188 188.308594 610.289062 183.054688 609.363281 177.585938 C 608.53125 172.730469 602.40625 169.328125 595.078125 169.328125 C 594.144531 169.328125 593.195312 169.398438 592.242188 169.503906 " fill-opacity="1" fill-rule="nonzero"/><path fill="#ffffff" d="M 592.242188 140.972656 C 583.714844 141.964844 577.542969 147.214844 578.480469 152.699219 C 579.402344 158.167969 587.066406 161.777344 595.605469 160.785156 C 604.117188 159.777344 610.289062 154.527344 609.363281 149.058594 C 608.53125 144.203125 602.390625 140.796875 595.050781 140.796875 C 594.144531 140.796875 593.195312 140.839844 592.242188 140.972656 " fill-opacity="1" fill-rule="nonzero"/><path fill="#ffffff" d="M 526.878906 63.847656 L 526.878906 253.773438 C 526.878906 270.414062 544.148438 267.839844 544.148438 267.839844 L 639.503906 267.839844 C 656.203125 266.347656 654.402344 254.152344 654.402344 254.152344 L 654.402344 152.320312 L 624.601562 162.320312 C 626.402344 162.320312 623.417969 250.058594 623.417969 250.058594 L 560.847656 250.058594 L 560.847656 52.355469 Z M 526.878906 63.847656 " fill-opacity="1" fill-rule="nonzero"/><path fill="#ffffff" d="M 415.433594 113.011719 L 414.835938 220.167969 L 445.824219 204.289062 L 444.929688 113.011719 C 444.929688 103.582031 458.644531 102.851562 458.644531 102.851562 C 472.039062 102.851562 470.253906 114.007812 470.253906 114.007812 L 470.253906 244.472656 C 416.632812 245.46875 413.050781 285.652344 413.050781 285.652344 C 412.453125 338.238281 499.457031 328.320312 499.457031 328.320312 C 442.839844 321.871094 445.234375 295.070312 445.234375 295.070312 C 448.203125 269.769531 500.058594 266.304688 500.058594 266.304688 L 500.058594 112.015625 C 500.058594 84.730469 458.9375 82.742188 458.9375 82.742188 C 417.21875 83.734375 415.433594 113.011719 415.433594 113.011719 " fill-opacity="1" fill-rule="nonzero"/><path fill="#ffffff" d="M 487.335938 284.101562 C 478.828125 285.097656 472.652344 290.359375 473.589844 295.8125 C 474.511719 301.285156 482.1875 304.910156 490.714844 303.902344 C 499.238281 302.90625 505.394531 297.671875 504.460938 292.1875 C 503.640625 287.332031 497.515625 283.925781 490.171875 283.925781 C 489.253906 283.925781 488.300781 283.984375 487.335938 284.101562 " fill-opacity="1" fill-rule="nonzero"/><path fill="#ffffff" d="M 680.636719 242.015625 L 680.667969 242.015625 L 680.667969 273.703125 C 680.667969 286.746094 667.960938 297.320312 652.269531 297.320312 L 585.296875 297.320312 C 576.902344 322.648438 527.328125 327.855469 527.328125 327.855469 L 671.324219 327.855469 C 696.167969 327.855469 716.289062 311.097656 716.289062 290.433594 L 716.289062 151.589844 L 680.636719 168.578125 Z M 680.636719 242.015625 " fill-opacity="1" fill-rule="nonzero"/><path fill="#ffffff" d="M 853.761719 90.902344 C 833.929688 90.902344 807.742188 90.40625 775.21875 89.410156 L 775.21875 107.355469 C 799.800781 108.785156 813.53125 110.175781 816.382812 111.523438 C 819.21875 112.894531 821.136719 115.265625 822.144531 118.683594 C 823.59375 124.097656 824.339844 140.914062 824.339844 169.136719 L 824.820312 334.109375 C 824.820312 368.59375 823.988281 397.285156 822.378906 420.242188 C 821.382812 435.070312 819.207031 444.078125 815.769531 447.265625 C 812.347656 450.484375 807.375 452.089844 800.867188 452.089844 C 787.855469 452.089844 776.199219 447.179688 765.949219 437.351562 L 760.082031 439.691406 C 760.902344 448.902344 761.300781 455.28125 761.300781 458.816406 C 761.300781 462.210938 760.902344 468.820312 760.082031 478.617188 C 767.074219 480.460938 773 481.367188 777.882812 481.367188 C 792.503906 481.367188 807.640625 477.007812 823.226562 468.351562 C 843.890625 456.652344 859.929688 443.378906 871.398438 428.578125 C 882.847656 413.75 889.878906 397.589844 892.484375 380.058594 C 893.460938 373.097656 894.105469 351.921875 894.441406 316.578125 L 895.1875 251.183594 L 895.667969 164.425781 C 895.816406 137.34375 896.632812 121.667969 898.097656 117.398438 C 898.738281 115.117188 900.027344 113.332031 901.898438 112.046875 C 903.757812 110.789062 907.46875 109.855469 913.011719 109.269531 C 926.523438 107.984375 935.882812 107.355469 941.089844 107.355469 L 941.089844 89.410156 C 911.652344 90.40625 882.554688 90.902344 853.761719 90.902344 " fill-opacity="1" fill-rule="nonzero"/><path fill="#ffffff" d="M 431.519531 359.277344 C 425.113281 359.277344 415.886719 359.074219 403.824219 358.679688 L 403.824219 366.019531 C 411.429688 366.488281 415.886719 367.042969 417.191406 367.671875 C 418.054688 368.140625 418.664062 368.886719 419.015625 369.910156 C 419.382812 370.933594 419.617188 376.648438 419.71875 387.089844 C 419.96875 402.371094 420.070312 414.027344 420.070312 422.054688 C 420.070312 443.054688 419.835938 457.398438 419.382812 465.089844 C 419.136719 468.773438 418.492188 471.070312 417.453125 472.007812 C 416.414062 472.941406 411.867188 473.617188 403.824219 474.011719 L 403.824219 481.367188 L 433.421875 480.75 C 438.597656 480.75 444.445312 480.867188 451.011719 481.101562 L 461.378906 481.367188 L 461.378906 474.011719 C 454.40625 473.542969 450.339844 473.105469 449.214844 472.664062 C 448.074219 472.226562 447.3125 471.625 446.960938 470.867188 C 446.085938 469.1875 445.558594 463.878906 445.382812 454.898438 C 445.207031 445.949219 445.132812 430.113281 445.132812 407.375 C 445.132812 390.292969 445.351562 378.945312 445.820312 373.359375 C 446.113281 370.496094 446.785156 368.679688 447.808594 367.890625 C 448.847656 367.101562 453.367188 366.488281 461.378906 366.019531 L 461.378906 358.679688 C 452.476562 359.074219 442.515625 359.277344 431.519531 359.277344 " fill-opacity="1" fill-rule="nonzero"/><path fill="#ffffff" d="M 525.269531 359.980469 C 507.792969 359.980469 489.851562 359.542969 471.382812 358.679688 L 470.429688 359.351562 C 471.132812 367.4375 471.425781 377.0625 471.308594 388.21875 L 478.871094 388.21875 C 479.617188 378.726562 480.128906 373.59375 480.359375 372.863281 C 480.597656 372.160156 480.933594 371.632812 481.386719 371.355469 C 481.808594 371.0625 483.738281 370.757812 487.148438 370.464844 C 493.011719 370.027344 500.027344 369.777344 508.1875 369.777344 C 512.179688 369.777344 514.257812 369.996094 514.402344 370.4375 C 514.550781 370.875 514.636719 382.648438 514.636719 405.78125 C 514.636719 417.550781 514.535156 429.074219 514.359375 440.363281 C 514.066406 456.273438 513.730469 465.484375 513.308594 468 C 512.957031 469.800781 512.429688 471.042969 511.726562 471.714844 C 511.023438 472.375 509.824219 472.855469 508.132812 473.148438 C 504.488281 473.734375 501.007812 474.011719 497.660156 474.011719 L 497.660156 481.367188 C 505.585938 480.957031 515.910156 480.75 528.648438 480.75 C 538.328125 480.75 547.464844 480.957031 556.09375 481.367188 L 556.09375 474.011719 C 547.628906 473.324219 542.992188 472.710938 542.246094 472.183594 C 541.121094 471.363281 540.402344 469.023438 540.109375 465.132812 C 539.804688 461.273438 539.671875 450.804688 539.671875 433.753906 L 540.183594 374.941406 C 540.183594 372.25 540.316406 370.699219 540.550781 370.304688 C 540.785156 369.953125 541.484375 369.777344 542.65625 369.777344 C 556.605469 369.777344 565.90625 370.160156 570.601562 370.933594 C 572.0625 371.152344 573 371.605469 573.40625 372.234375 C 573.933594 373.066406 574.460938 378.390625 575.003906 388.21875 L 582.285156 388.21875 C 582.75 377.453125 583.542969 368.097656 584.652344 360.082031 L 583.6875 358.679688 C 562.132812 359.542969 542.65625 359.980469 525.269531 359.980469 " fill-opacity="1" fill-rule="nonzero"/><path fill="#ffffff" d="M 652.242188 357.714844 L 621.136719 433.519531 C 615.550781 446.988281 610.988281 457.53125 607.417969 465.089844 C 605.546875 468.949219 604.160156 471.160156 603.28125 471.746094 C 601.996094 472.5625 598.605469 473.117188 593.089844 473.410156 L 593.089844 481.367188 C 597.886719 480.957031 604.363281 480.75 612.496094 480.75 C 621.035156 480.75 628.1875 480.957031 633.902344 481.367188 L 633.902344 473.410156 C 626.839844 472.839844 622.730469 472.285156 621.578125 471.746094 C 620.433594 471.21875 619.867188 470.28125 619.867188 468.964844 C 619.867188 468 620.042969 466.917969 620.390625 465.722656 C 621.925781 460.425781 623.214844 456.433594 624.265625 453.757812 L 628.113281 443.929688 C 634.515625 443.753906 641.609375 443.683594 649.402344 443.683594 C 658.382812 443.683594 666.511719 443.753906 673.78125 443.929688 L 679.570312 458.542969 C 682.027344 464.871094 683.269531 468.558594 683.269531 469.640625 C 683.269531 470.910156 682.714844 471.773438 681.648438 472.257812 C 680.566406 472.738281 676.542969 473.132812 669.566406 473.410156 L 669.566406 481.367188 C 678.691406 480.957031 688.328125 480.75 698.464844 480.75 C 706.945312 480.75 715.980469 480.957031 725.5 481.367188 L 725.5 473.410156 C 719.300781 473.015625 715.601562 472.242188 714.417969 471.101562 C 713.203125 469.976562 710.015625 463.496094 704.867188 451.625 L 665.152344 357.714844 Z M 632.191406 433.519531 L 650.75 388.539062 L 669.566406 433.519531 C 663.339844 433.8125 656.847656 433.957031 650.046875 433.957031 C 643.539062 433.957031 637.589844 433.8125 632.191406 433.519531 " fill-opacity="1" fill-rule="nonzero"/></svg>